<?xml version="1.0" standalone="no"?><!DOCTYPE svg PUBLIC "-//W3C//DTD SVG 1.1//EN" "http://www.w3.org/Graphics/SVG/1.1/DTD/svg11.dtd"><svg t="1572326030881" class="icon" viewBox="0 0 1024 1024" version="1.1" xmlns="http://www.w3.org/2000/svg" p-id="7585" xmlns:xlink="http://www.w3.org/1999/xlink" width="200" height="200"><defs><style type="text/css"></style></defs><path d="M512 512m-512 0a512 512 0 1 0 1024 0 512 512 0 1 0-1024 0Z" fill="#2196F3" p-id="7586"></path><path d="M512 192a64 64 0 1 0 0 128 64 64 0 0 0 0-128z m0 624a48 48 0 0 0 48-48v-288a48 48 0 0 0-96 0V768c0 26.496 21.504 48 48 48z" fill="#FFFFFF" p-id="7587"></path></svg>