<?xml version="1.0" encoding="utf-8"?>
<!-- Generator: Adobe Illustrator 23.0.0, SVG Export Plug-In . SVG Version: 6.00 Build 0)  -->
<svg version="1.1" id="图层_1" xmlns="http://www.w3.org/2000/svg" xmlns:xlink="http://www.w3.org/1999/xlink" x="0px" y="0px"
	 viewBox="0 0 200 200" style="enable-background:new 0 0 200 200;" xml:space="preserve">
<style type="text/css">
	.st0{fill:#75AEFF;}
	.st1{fill:#CCA692;}
	.st2{fill:#F9CFB3;}
	.st3{fill:#594A42;}
	.st4{fill:#DAE3F0;}
	.st5{fill:#DF8200;}
</style>
<path class="st0" d="M200,100c0,25.4-9.5,48.6-25.1,66.2c-4.6,5.2-9.7,9.9-15.3,14.1c-0.7,0.6-1.5,1.1-2.3,1.6
	c-11.8,8.3-25.5,14-40.2,16.6c-2.3,0.4-4.6,0.7-6.9,0.9c-3.3,0.3-6.8,0.5-10.2,0.5c-2.8,0-5.6-0.1-8.4-0.4c-1.6-0.1-3.1-0.3-4.7-0.5
	c-13.5-1.8-26.1-6.2-37.4-12.8c-3-1.7-5.8-3.6-8.6-5.6c-5.6-4.1-10.8-8.8-15.4-13.9C9.7,149.1,0,125.7,0,100C0,44.8,44.8,0,100,0
	S200,44.8,200,100z"/>
<path class="st1" d="M126.4,123.7l0.1,2c0.6,10.8-1.2,17.3,7.3,25.2c3.5,3.2,7.1,7.4,6.3,12.1c-0.7,4.4-5.2,7.3-9.5,8.2
	c-4.3,1-8.9,0.6-13.2,1.4c-5.1,1-10,3.5-15.2,3.3c-6.3-0.2-11.7-4.6-16.2-9c-4.5-4.5-8.9-9.4-14.8-11.7c-1.1-0.4-2.5-1.1-2.2-2.3
	c0.1-0.5,0.5-0.8,0.9-1.1c10.5-9.1,12.3-14.9,11.6-28.3L126.4,123.7z"/>
<path class="st2" d="M140.3,88.1c-0.2-1.4-1.1-3.8-3-2.3c-0.8,0.7-0.3,2.2-1.1,2.7c-2,1.4-2.3-1.4-2.5-2.6c-1.4-8.6,3-17.6,1.4-26.2
	c-0.7-4.3-3.5-8.4-7.6-9.6c-2.8-0.8-5.8-0.1-8.6,0.9c-3.8,1.4-7.3,3.4-10.4,5.9c-1.8,1.4-5.3,4.8-8,4.1c-0.1,0-0.6,0-1.2,0.1l0-0.3
	c-3.2-0.7-4.2-0.7-6.4-3.1c-2-2.2-4.1-4-7-4.8c-3.3-1-7-0.5-10,1.3c-3.2,1.9-5.5,5.2-6.6,8.8c-1.3,4.1-0.9,8.4-1.2,12.6
	c-0.4,4.6,2.1,8.9,1.8,13.6c-0.1,1.3-0.1,4-2.2,2.9c-0.8-0.5-0.5-2-1.4-2.6c-2-1.3-2.7,1.1-2.7,2.5c0,5.1,1.1,10.5,3.6,14.9
	c1.5,2.5,3.5,3.2,5.5,5c2.2,2,2.1,6.1,3,8.7c0.6,1.8,1.5,3.3,2.7,4.7c2.5,2.9,6.7,4.1,9.5,6.7c2.7,2.5,5.1,4.9,8.7,6.4
	c0.8,0.4,1.8,0.5,2.8,0.6l0,0.7c0.4,0,4.7-0.9,5.1-0.9c2.7,0,5.7-0.2,7.7-1.3c3.4-1.8,5.6-4.5,8-7.2c2.6-2.9,6.6-4.5,8.8-7.7
	c1-1.5,1.8-3.2,2.2-5c0.6-2.7,0.1-6.8,2.1-9c1.8-2,3.7-2.8,4.9-5.5C140.3,98.6,140.8,93.1,140.3,88.1z"/>
<path class="st3" d="M138.1,82.3c-0.8,3.5-1.6,6.9-2.3,9.8c-0.3,1.3-0.6,2.8-1,4.1c-0.2,0.6-0.2,1-0.6,1.5c-0.1,0.1-1.6,1.1-1.6,0.9
	c0.5-5,1.1-9.8,0.5-14.8c-0.9-8.6,0.7-22.8-11.6-22.3c-3.7,0.1-7.2,1.6-10.7,2.8c-3.5,1.2-7.2,2.3-10.9,1.6c-5.7-1-10.2-6.1-16-6.8
	c-8.9-1.1-12.3,6.7-12.7,14c-0.3,5-0.8,9.5-0.4,14.6c0.2,1.9,0.8,3.6,1.1,5.5c0.1,0.8,1.4,6.4,1,6.8c-0.3,0.3-0.8-0.2-1-0.5
	c-6.8-13-11.2-30.7-3.1-44.7c1.6-2.8,4-5.1,6.3-7.3c6.6-6.3,13.2-12.6,19.8-18.9c0.2-0.2,0.4-0.4,0.7-0.5c1.2-0.7,2.7,0.4,3.7,1.3
	c11.4,9.6,27.8,10.5,37,23.6C141.5,60.6,140.2,72.3,138.1,82.3z"/>
<path class="st4" d="M139.1,157.3c-0.4,2.2-1.3,4.4-2.2,6.3c-1.1,2.3-2.4,4.6-3.8,6.7c-2.9,4.6-6.3,9-8.9,13.8s-4.9,9.6-7.2,14.4
	c-2.3,0.4-4.6,0.7-6.9,0.9c-3.3,0.3-6.8,0.5-10.2,0.5c-2.8,0-5.6-0.1-8.4-0.4c-1.6-0.1-3.1-0.3-4.7-0.5c-2.6-12.2-4.9-24.5-9.9-36.3
	c-0.7-1.7-1.2-3.5-1.5-5.3c-0.6-3.5-0.6-7.2-0.4-10.7l0,0c0-0.5,0.1-1,0.1-1.5c0,0,0,0,0.1,0.1s0.3,0.3,0.5,0.5
	c3.1,3,14.8,13,31.5,11.5c10.3-0.9,17.7-5.8,21.5-8.9c0.6-0.5,1.1-0.9,1.5-1.3c0.3-0.2,0.5-0.4,0.7-0.6c0,0,7.1,1.9,8,6.8
	C139.4,154.6,139.3,156,139.1,157.3z"/>
<path class="st5" d="M91.6,199.6c-1.6-0.1-3.1-0.3-4.7-0.5c-13.5-1.8-26.1-6.2-37.4-12.8c-3-1.7-5.8-3.6-8.6-5.6
	c-0.1-2.5-0.2-5.1-0.2-7.6c-0.1-3.2-8.7-6.7-7.6-9.6c0.4-1.1,2.1-2.3,4.3-3.5c4.7-2.4,11.7-4.6,13.9-5c5.2-1,10.2-2.5,14.9-5
	c4-2.1,4.4-3.1,8.9-4.8c0,0,0,0,0.1,0.1s0.2,0.4,0.3,0.8c0.8,2.3,2.6,8.6,4.3,14.9c2.1,7.5,4.1,14.9,4.1,14.9L91.6,199.6z"/>
<path class="st5" d="M162.1,159.8c0,0.1,0,0.2,0,0.3c-0.7,6.7-1.6,13.4-2.5,20.2c-0.7,0.6-1.5,1.1-2.3,1.6
	c-11.8,8.3-25.5,14-40.2,16.6c-2.3,0.4-4.6,0.7-6.9,0.9c2.4-5.5,4.3-9.8,5-11.7c1.2-2.8,3.3-8.9,5.7-15.7c3.1-9,6.5-19,8-23.7
	c0.4-1.2,0.7-2,0.8-2.4l0,0c0.1-0.1,0.1-0.2,0.1-0.2s14.2,5.6,17.4,6.6C152.5,153.9,157.4,157.8,162.1,159.8z"/>
<path class="st3" d="M130.1,117c0.1,0.4-0.1,0.9-0.3,1.3c-0.5,1-1,1.9-1.6,2.7c-0.6,0.8-1,1.8-1.5,2.6c-1,1.8-2.4,3.6-4.1,4.8
	c-4.1,3.1-8.5,6-13,8.3c-0.7,0.3-1.4,0.7-2.2,0.6c-2.1-0.2-3.5-5.7-5.5-2.1c-0.4,0.8-0.7,1.7-1.4,2.2c-3.7,2.7-11.7-4.8-14.3-6.8
	c-1.3-0.9-2.5-1.9-3.6-3c-1-1.1-1.9-2.3-2.7-3.5c-1.6-2.3-3.3-4.8-3.6-7.6c-0.2,1.9-0.4,3.9,0.4,5.7c0.2,0.5,0.5,0.9,0.7,1.4
	c2,3.4,3.9,7,7,9.6c2.9,2.4,6.3,4.1,9.3,6.3c2.4,1.8,5.5,3,8.8,3.5c3.2-0.5,6.4-1.7,8.8-3.5c3.2-2.3,6.9-4.2,10.1-6.8
	c1.2-1,2.2-2.1,3.1-3.2c0.9-1.1,2-2.3,2.7-3.5c0.5-1.1,1-2.1,1.6-3.1C129.7,121,130.5,119.1,130.1,117z"/>
<g id="_x33__4_">
	<path class="st5" d="M49.6,186.4c-3-1.7-5.8-3.6-8.6-5.6c-5.6-4.1-10.8-8.8-15.4-13.9c2.9-3.3,7.5-5.2,11.9-6.7
		c1.9-0.7,3.7-1.3,5.4-1.9c1.3-0.5,2.6-1,3.9-1.5c0.3-0.1,0.7-0.3,1,0c0.2,0.2,0.3,0.5,0.3,0.7c0.4,3-1.5,6.1-1.8,9.1
		c-0.3,3.4,0.4,6.9,1.1,10.2C48.2,179.9,48.9,183.1,49.6,186.4z"/>
	<path class="st5" d="M174.9,166.2c-4.6,5.2-9.7,9.9-15.3,14.1c-0.7,0.6-1.5,1.1-2.3,1.6c0.2-2.8,0.4-5.7,0.6-8.5
		c0.3-5-3.3-13.3,4.1-13.4h0.1C167.3,160,171.6,162.6,174.9,166.2z"/>
</g>
</svg>
