<?xml version="1.0" standalone="no"?><!DOCTYPE svg PUBLIC "-//W3C//DTD SVG 1.1//EN" "http://www.w3.org/Graphics/SVG/1.1/DTD/svg11.dtd"><svg t="1561595870479" class="icon" viewBox="0 0 1024 1024" version="1.1" xmlns="http://www.w3.org/2000/svg" p-id="15059" xmlns:xlink="http://www.w3.org/1999/xlink" width="200" height="200"><defs><style type="text/css"></style></defs><path d="M953.670516 201.69697v775.043878A46.917818 46.917818 0 0 1 907.125062 1024H115.852335a46.902303 46.902303 0 0 1-46.545455-47.259152V47.259152A46.902303 46.902303 0 0 1 115.852335 0h651.636363z" fill="#7986CB" p-id="15060"></path><path d="M674.52191 512L379.765062 682.666667V341.178182z" fill="#FFFFFF" p-id="15061"></path><path d="M953.670516 201.69697H798.519001l155.151515 170.666666V201.69697z" fill="#6D78B6" p-id="15062"></path><path d="M224.458395 946.424242H146.882638a15.515152 15.515152 0 0 1-15.515152-15.515151v-77.575758a15.515152 15.515152 0 0 1 15.515152-15.515151h77.575757a15.515152 15.515152 0 0 1 15.515152 15.515151v77.575758a15.515152 15.515152 0 0 1-15.515152 15.515151z m0-155.151515H146.882638a15.515152 15.515152 0 0 1-15.515152-15.515151v-77.575758a15.515152 15.515152 0 0 1 15.515152-15.515151h77.575757a15.515152 15.515152 0 0 1 15.515152 15.515151v77.575758a15.515152 15.515152 0 0 1-15.515152 15.515151z m0-155.151515H146.882638a15.515152 15.515152 0 0 1-15.515152-15.515151v-77.575758a15.515152 15.515152 0 0 1 15.515152-15.515151h77.575757a15.515152 15.515152 0 0 1 15.515152 15.515151v77.575758a15.515152 15.515152 0 0 1-15.515152 15.515151z m0-155.151515H146.882638a15.515152 15.515152 0 0 1-15.515152-15.515152v-77.575757a15.515152 15.515152 0 0 1 15.515152-15.515152h77.575757a15.515152 15.515152 0 0 1 15.515152 15.515152v77.575757a15.515152 15.515152 0 0 1-15.515152 15.515152z m0-155.151515H146.882638a15.515152 15.515152 0 0 1-15.515152-15.515152v-77.575757a15.515152 15.515152 0 0 1 15.515152-15.515152h77.575757a15.515152 15.515152 0 0 1 15.515152 15.515152v77.575757a15.515152 15.515152 0 0 1-15.515152 15.515152z m0-155.151515H146.882638a15.515152 15.515152 0 0 1-15.515152-15.515152V77.575758a15.515152 15.515152 0 0 1 15.515152-15.515152h77.575757a15.515152 15.515152 0 0 1 15.515152 15.515152v77.575757a15.515152 15.515152 0 0 1-15.515152 15.515152zM798.519001 217.212121h77.575758a15.515152 15.515152 0 0 1 15.515151 15.515152v77.575757a15.515152 15.515152 0 0 1-15.515151 15.515152h-77.575758a15.515152 15.515152 0 0 1-15.515151-15.515152v-77.575757a15.515152 15.515152 0 0 1 15.515151-15.515152z m0 155.151515h77.575758a15.515152 15.515152 0 0 1 15.515151 15.515152v77.575757a15.515152 15.515152 0 0 1-15.515151 15.515152h-77.575758a15.515152 15.515152 0 0 1-15.515151-15.515152v-77.575757a15.515152 15.515152 0 0 1 15.515151-15.515152z m0 155.151516h77.575758a15.515152 15.515152 0 0 1 15.515151 15.515151v77.575758a15.515152 15.515152 0 0 1-15.515151 15.515151h-77.575758a15.515152 15.515152 0 0 1-15.515151-15.515151v-77.575758a15.515152 15.515152 0 0 1 15.515151-15.515151z m0 155.151515h77.575758a15.515152 15.515152 0 0 1 15.515151 15.515151v77.575758a15.515152 15.515152 0 0 1-15.515151 15.515151h-77.575758a15.515152 15.515152 0 0 1-15.515151-15.515151v-77.575758a15.515152 15.515152 0 0 1 15.515151-15.515151z m0 155.151515h77.575758a15.515152 15.515152 0 0 1 15.515151 15.515151v77.575758a15.515152 15.515152 0 0 1-15.515151 15.515151h-77.575758a15.515152 15.515152 0 0 1-15.515151-15.515151v-77.575758a15.515152 15.515152 0 0 1 15.515151-15.515151z" fill="#FFFFFF" p-id="15063"></path><path d="M954.694516 201.69697H814.034153a46.545455 46.545455 0 0 1-46.545455-46.545455V0z" fill="#9FA8DA" p-id="15064"></path></svg>